<?xml version="1.0" encoding="UTF-8"?>
<svg version="1.1" xmlns="http://www.w3.org/2000/svg" width="500" height="500">
<path d="M0 0 C165 0 330 0 500 0 C500 165 500 330 500 500 C335 500 170 500 0 500 C0 335 0 170 0 0 Z " fill="#FEFEFE" transform="translate(0,0)"/>
<path d="M0 0 C3.68193654 -0.07176627 7.35723987 -0.17327844 11.03571987 -0.35083675 C36.69585678 -1.55943977 36.69585678 -1.55943977 44.66633511 4.47802067 C55.90161154 14.79397416 55.90161154 14.79397416 56.2245779 21.35353947 C56.22235729 22.37946201 56.22013668 23.40538456 56.21784878 24.46239567 C56.21773548 26.20397449 56.21773548 26.20397449 56.2176199 27.98073673 C56.21245861 29.23909336 56.20729733 30.49744999 56.20197964 31.79393864 C56.20056469 33.07847935 56.19914974 34.36302006 56.19769192 35.68648624 C56.1938725 39.10269455 56.18404712 42.5188604 56.17298794 45.93505192 C56.16276146 49.4205604 56.15819164 52.90607573 56.15315151 56.39159489 C56.14242434 63.23145609 56.12535481 70.07128907 56.10432339 76.91112614 C54.45432339 76.58112614 52.80432339 76.25112614 51.10432339 75.91112614 C51.10432339 58.09112614 51.10432339 40.27112614 51.10432339 21.91112614 C46.81432339 21.91112614 42.52432339 21.91112614 38.10432339 21.91112614 C36.78432339 20.59112614 35.46432339 19.27112614 34.10432339 17.91112614 C34.10432339 13.62112614 34.10432339 9.33112614 34.10432339 4.91112614 C16.28432339 4.91112614 -1.53567661 4.91112614 -19.89567661 4.91112614 C-19.89567661 35.27112614 -19.89567661 65.63112614 -19.89567661 96.91112614 C-4.05567661 96.91112614 11.78432339 96.91112614 28.10432339 96.91112614 C28.10432339 98.23112614 28.10432339 99.55112614 28.10432339 100.91112614 C20.71704237 100.93639306 13.32977241 100.95395774 5.94245815 100.96605778 C3.42715444 100.97109977 0.91185367 100.97793316 -1.60344028 100.98656559 C-5.20997436 100.99863708 -8.81646984 101.00435563 -12.42302036 101.00878239 C-14.12143322 101.01652431 -14.12143322 101.01652431 -15.85415745 101.02442265 C-16.89516102 101.02449818 -17.93616459 101.02457371 -19.00871372 101.02465153 C-19.93026752 101.02687214 -20.85182133 101.02909275 -21.801301 101.03138065 C-23.89567661 100.91112614 -23.89567661 100.91112614 -24.89567661 99.91112614 C-24.9963186 96.87246853 -25.03182251 93.85649884 -25.02507114 90.81737614 C-25.02682346 89.86298649 -25.02857578 88.90859684 -25.0303812 87.92528629 C-25.03480148 84.75388136 -25.03186111 81.58253169 -25.02848911 78.41112614 C-25.0291621 76.21776665 -25.03013208 74.02440724 -25.03138828 71.83104801 C-25.03286549 67.22752518 -25.03070995 62.62402172 -25.02604771 58.02050114 C-25.02035041 52.10508019 -25.02362929 46.1897046 -25.02962017 40.27428532 C-25.03322516 35.74315388 -25.03208749 31.21203328 -25.02949238 26.68090153 C-25.02882294 24.49909809 -25.02965213 22.31729368 -25.03197193 20.13549137 C-25.03449743 17.09192624 -25.03065931 14.04843568 -25.02507114 11.00487614 C-25.02709538 10.09367008 -25.02911961 9.18246403 -25.03120518 8.24364567 C-24.99048437 -3.66311984 -9.73517322 0.18625443 0 0 Z " fill="#274364" transform="translate(99.895676612854,193.08887386322021)"/>
<path d="M0 0 C3.7229703 2.6592645 6.55543557 5.73587115 8.625 9.875 C9.36542756 15.9671255 9.6564177 21.3168364 5.9375 26.4375 C2.84433308 30.15409591 -0.42965214 32.58437603 -5.27734375 33.30859375 C-11.46429769 33.31655637 -15.61848553 33.27477589 -20.375 28.875 C-25.22547359 23.50015089 -25.89372546 19.04962601 -25.859375 11.96484375 C-25.07064701 6.93352246 -22.28260492 3.97249171 -18.375 0.875 C-12.9070694 -2.55652023 -5.9259046 -1.97530153 0 0 Z " fill="#D63837" transform="translate(156.375,273.125)"/>
<path d="M0 0 C12.21 0 24.42 0 37 0 C37 3.96 37 7.92 37 12 C36.01 12 35.02 12 34 12 C33.731875 11.21625 33.46375 10.4325 33.1875 9.625 C32.15185568 6.71885077 32.15185568 6.71885077 29 5 C26.40393086 4.69925319 23.91446877 4.49204838 21.3125 4.375 C18.899375 4.25125 16.48625 4.1275 14 4 C14 8.95 14 13.9 14 19 C19.55176127 18.82264728 19.55176127 18.82264728 25 18 C27.1386077 15.61012067 27.1386077 15.61012067 28 13 C28.66 13 29.32 13 30 13 C30 18.61 30 24.22 30 30 C29.01 29.67 28.02 29.34 27 29 C26.649375 28.175 26.29875 27.35 25.9375 26.5 C24.26114446 23.79106792 24.26114446 23.79106792 21.5859375 23.44921875 C19.05196151 23.21009707 16.54433118 23.05250965 14 23 C14.03302931 25.44116625 14.10014162 27.87318511 14.1875 30.3125 C14.19330078 31.00279297 14.19910156 31.69308594 14.20507812 32.40429688 C14.25390458 34.7016326 14.25390458 34.7016326 15 38 C17.43888246 39.89795367 17.43888246 39.89795367 20 41 C20 41.66 20 42.32 20 43 C13.07 43 6.14 43 -1 43 C-1 42.34 -1 41.68 -1 41 C0.98 40.34 2.96 39.68 5 39 C5 27.45 5 15.9 5 4 C3.35 3.67 1.7 3.34 0 3 C0 2.01 0 1.02 0 0 Z " fill="#11345B" transform="translate(90,218)"/>
<path d="M0 0 C15.33333333 12.66666667 15.33333333 12.66666667 18 18 C18.09101612 19.8485708 18.11753146 21.70046379 18.11352539 23.55126953 C18.11344986 24.71232208 18.11337433 25.87337463 18.11329651 27.0696106 C18.10813522 28.32796722 18.10297394 29.58632385 18.09765625 30.8828125 C18.0962413 32.16735321 18.09482635 33.45189392 18.09336853 34.77536011 C18.08954911 38.19156842 18.07972373 41.60773426 18.06866455 45.02392578 C18.05843807 48.50943426 18.05386826 51.9949496 18.04882812 55.48046875 C18.03810096 62.32032995 18.02103142 69.16016294 18 76 C16.35 75.67 14.7 75.34 13 75 C13 57.18 13 39.36 13 21 C8.71 21 4.42 21 0 21 C-0.99 20.34 -1.98 19.68 -3 19 C-3 18.34 -3 17.68 -3 17 C-2.34 16.67 -1.68 16.34 -1 16 C-0.5720382 14.13690908 -0.5720382 14.13690908 -0.4375 12 C-0.09589041 8.09589041 -0.09589041 8.09589041 1 7 C0.71269945 4.66055264 0.38063221 2.3260857 0 0 Z " fill="#2E4B6E" transform="translate(138,194)"/>
<path d="M0 0 C0.99 0 1.98 0 3 0 C3.33 30.69 3.66 61.38 4 93 C19.84 93 35.68 93 52 93 C52 94.32 52 95.64 52 97 C34.84 97 17.68 97 0 97 C0 64.99 0 32.98 0 0 Z " fill="#153661" transform="translate(76,197)"/>
<path d="M0 0 C1.65 0 3.3 0 5 0 C5 7.59 5 15.18 5 23 C-6.32988166 23.49260355 -6.32988166 23.49260355 -9.359375 21.265625 C-11.66818082 18.07727411 -11.57414903 15.95188589 -11.37890625 12.12890625 C-11 10 -11 10 -9.4375 7.4375 C-6.17847619 5.5155116 -3.71510114 5.71422299 0 6 C0 4.02 0 2.04 0 0 Z " fill="#445E7D" transform="translate(301,229)"/>
<path d="M0 0 C1.98828125 0.37109375 1.98828125 0.37109375 3.98828125 2.37109375 C3.61328125 4.99609375 3.61328125 4.99609375 2.98828125 7.37109375 C0.51328125 6.87609375 0.51328125 6.87609375 -2.01171875 6.37109375 C-2.01171875 5.05109375 -2.01171875 3.73109375 -2.01171875 2.37109375 C-3.00171875 2.70109375 -3.99171875 3.03109375 -5.01171875 3.37109375 C-5.34171875 6.01109375 -5.67171875 8.65109375 -6.01171875 11.37109375 C-4.36171875 11.37109375 -2.71171875 11.37109375 -1.01171875 11.37109375 C-1.01171875 12.36109375 -1.01171875 13.35109375 -1.01171875 14.37109375 C-2.66171875 14.37109375 -4.31171875 14.37109375 -6.01171875 14.37109375 C-6.01171875 19.32109375 -6.01171875 24.27109375 -6.01171875 29.37109375 C-5.02171875 29.37109375 -4.03171875 29.37109375 -3.01171875 29.37109375 C-3.01171875 30.03109375 -3.01171875 30.69109375 -3.01171875 31.37109375 C-6.97171875 31.37109375 -10.93171875 31.37109375 -15.01171875 31.37109375 C-15.01171875 30.71109375 -15.01171875 30.05109375 -15.01171875 29.37109375 C-14.35171875 29.04109375 -13.69171875 28.71109375 -13.01171875 28.37109375 C-12.69930504 25.82168002 -12.49868454 23.36747862 -12.38671875 20.80859375 C-12.34804687 20.09767578 -12.309375 19.38675781 -12.26953125 18.65429688 C-12.17500092 16.8936695 -12.09226058 15.13241647 -12.01171875 13.37109375 C-13.00171875 13.37109375 -13.99171875 13.37109375 -15.01171875 13.37109375 C-15.01171875 12.71109375 -15.01171875 12.05109375 -15.01171875 11.37109375 C-14.02171875 11.37109375 -13.03171875 11.37109375 -12.01171875 11.37109375 C-12.11484375 10.48421875 -12.21796875 9.59734375 -12.32421875 8.68359375 C-12.01171875 5.37109375 -12.01171875 5.37109375 -10.07421875 2.49609375 C-6.4130954 -0.04427756 -4.33396719 -0.12382763 0 0 Z " fill="#3FBCBA" transform="translate(139.01171875,229.62890625)"/>
<path d="M0 0 C2.475 0.495 2.475 0.495 5 1 C5.33 0.67 5.66 0.34 6 0 C7.99950636 -0.04443347 10.00038436 -0.03920815 12 0 C13.32 0 14.64 0 16 0 C18 0 20 0 22 0 C22 0.66 22 1.32 22 2 C22.66 2 23.32 2 24 2 C24 6.95 24 11.9 24 17 C22.68 17 21.36 17 20 17 C19.67 13.04 19.34 9.08 19 5 C17.68 5 16.36 5 15 5 C14.67 8.96 14.34 12.92 14 17 C12.68 17 11.36 17 10 17 C10 12.71 10 8.42 10 4 C8.35 4.33 6.7 4.66 5 5 C4.67 8.96 4.34 12.92 4 17 C2.68 17 1.36 17 0 17 C0 11.39 0 5.78 0 0 Z " fill="#2E486D" transform="translate(372,235)"/>
<path d="M0 0 C2.5 1.4375 2.5 1.4375 4 4 C4.76004105 8.31481639 4.73570183 11.74317604 2.5 15.5625 C-1.26364476 17.72659573 -3.68055941 17.47993784 -8 17 C-10.17476401 15.45661909 -10.81832637 14.36334727 -12 12 C-12.56872038 4.9478673 -12.56872038 4.9478673 -10.5 1.5 C-6.95982944 -0.62410234 -4.02518275 -0.7835909 0 0 Z " fill="#29486D" transform="translate(204,235)"/>
<path d="M0 0 C3.69186542 2.59216083 4.82883761 4.04149064 5.625 8.5 C4.82883761 12.95850936 3.69186542 14.40783917 0 17 C-3.92582814 17.6198676 -6.00082919 17.58925458 -9.4375 15.5625 C-11.75587974 11.76035723 -11.77201236 8.33759522 -11 4 C-8.21528417 -0.56693397 -5.09718974 -0.80481943 0 0 Z " fill="#224469" transform="translate(351,235)"/>
<path d="M0 0 C4.11130825 2.26541475 5.6396147 4.54782991 7 9 C6.21625 9.4125 5.4325 9.825 4.625 10.25 C1.94108344 12.0392777 1.11901051 13.04988139 0 16 C-0.33 15.360625 -0.66 14.72125 -1 14.0625 C-3.53366811 11.44965477 -5.53609171 11.47766727 -9.0703125 11.21875 C-11.35990832 10.95920068 -12.97287702 10.0511008 -15 9 C-15.99 9.33 -16.98 9.66 -18 10 C-18 10.99 -18 11.98 -18 13 C-18.66 13 -19.32 13 -20 13 C-19.67 11.35 -19.34 9.7 -19 8 C-18.34 8 -17.68 8 -17 8 C-16.62875 6.576875 -16.62875 6.576875 -16.25 5.125 C-15 2 -15 2 -13.26171875 0.828125 C-8.95064464 -0.75036846 -4.5124955 -0.54230287 0 0 Z " fill="#D8302E" transform="translate(153,272)"/>
<path d="M0 0 C6.03331362 4.98404168 11.5184171 10.41915303 17 16 C16.34 16.33 15.68 16.66 15 17 C14.34444881 19.52733235 14.34444881 19.52733235 14 22 C11.72858891 21.88597936 9.45785448 21.75841495 7.1875 21.625 C5.92292969 21.55539063 4.65835938 21.48578125 3.35546875 21.4140625 C0 21 0 21 -3 19 C-3 18.34 -3 17.68 -3 17 C-2.34 16.67 -1.68 16.34 -1 16 C-0.5720382 14.13690908 -0.5720382 14.13690908 -0.4375 12 C-0.09589041 8.09589041 -0.09589041 8.09589041 1 7 C0.71269945 4.66055264 0.38063221 2.3260857 0 0 Z " fill="#113862" transform="translate(138,194)"/>
<path d="M0 0 C0.66 0.309375 1.32 0.61875 2 0.9375 C4.5859417 1.85335435 6.44301142 2.19998072 9.125 2.4375 C13 3 13 3 15 4.25 C16.40295663 6.7051741 16.4079836 8.21211209 16 11 C14.9375 13.3125 14.9375 13.3125 13 15 C9.3125 15.25 9.3125 15.25 6 15 C6 14.34 6 13.68 6 13 C4.68 12.67 3.36 12.34 2 12 C1.67 12.66 1.34 13.32 1 14 C0.01 14 -0.98 14 -2 14 C-2 10.04 -2 6.08 -2 2 C-1.34 2 -0.68 2 0 2 C0 1.34 0 0.68 0 0 Z " fill="#DA5054" transform="translate(137,280)"/>
<path d="M0 0 C4.95 0 9.9 0 15 0 C15 1.32 15 2.64 15 4 C11.7 4 8.4 4 5 4 C5 5.98 5 7.96 5 10 C7.97 10 10.94 10 14 10 C14 11.32 14 12.64 14 14 C11.03 14 8.06 14 5 14 C5 16.97 5 19.94 5 23 C3.35 23 1.7 23 0 23 C0 15.41 0 7.82 0 0 Z " fill="#334D6D" transform="translate(175,229)"/>
<path d="M0 0 C2.0078125 0.328125 2.0078125 0.328125 3.75390625 1.39453125 C5.68951292 4.37934528 5.29174902 7.01176466 5.1953125 10.515625 C5.16824219 11.78792969 5.14117187 13.06023437 5.11328125 14.37109375 C5.07847656 15.34691406 5.04367187 16.32273438 5.0078125 17.328125 C3.04977743 17.38201587 1.09132341 17.42086717 -0.8671875 17.453125 C-2.50300781 17.48792969 -2.50300781 17.48792969 -4.171875 17.5234375 C-6.9921875 17.328125 -6.9921875 17.328125 -8.9921875 15.328125 C-8.6171875 11.703125 -8.6171875 11.703125 -7.9921875 8.328125 C-5.3521875 7.668125 -2.7121875 7.008125 0.0078125 6.328125 C0.0078125 5.668125 0.0078125 5.008125 0.0078125 4.328125 C-2.6321875 4.658125 -5.2721875 4.988125 -7.9921875 5.328125 C-6.76176005 -0.12091087 -5.63631991 0.20798228 0 0 Z " fill="#1A3A63" transform="translate(262.9921875,234.671875)"/>
<path d="M0 0 C3.625 0.1875 3.625 0.1875 6.625 2.1875 C7.00911275 4.797121 7.22793197 7.1933074 7.3125 9.8125 C7.36374023 10.87210938 7.36374023 10.87210938 7.41601562 11.953125 C7.49851308 13.69735688 7.56343335 15.44240395 7.625 17.1875 C5.50027424 17.24136629 3.37516348 17.28023071 1.25 17.3125 C0.06664062 17.33570313 -1.11671875 17.35890625 -2.3359375 17.3828125 C-5.375 17.1875 -5.375 17.1875 -7.375 15.1875 C-7.75 12.75 -7.75 12.75 -7.375 10.1875 C-4.99630509 7.53434029 -3.70375347 7.20646655 -0.125 7 C1.23625 7.0928125 1.23625 7.0928125 2.625 7.1875 C2.295 6.1975 1.965 5.2075 1.625 4.1875 C-1.015 4.5175 -3.655 4.8475 -6.375 5.1875 C-3.97168508 0.22064917 -3.97168508 0.22064917 0 0 Z " fill="#203E60" transform="translate(406.375,234.8125)"/>
<path d="M0 0 C4.95 0 9.9 0 15 0 C15 1.32 15 2.64 15 4 C11.37 4 7.74 4 4 4 C4 5.98 4 7.96 4 10 C7.3 10 10.6 10 14 10 C14 11.32 14 12.64 14 14 C10.7 14 7.4 14 4 14 C4 16.97 4 19.94 4 23 C2.68 23 1.36 23 0 23 C0 15.41 0 7.82 0 0 Z " fill="#234367" transform="translate(323,229)"/>
<path d="M0 0 C8 0 8 0 10.5 1.5 C12.73587506 5.22645843 12.41151261 7.67911757 12 12 C10 15 10 15 7 16 C4.69 16 2.38 16 0 16 C0 10.72 0 5.44 0 0 Z " fill="#989796" transform="translate(260,261)"/>
<path d="M0 0 C1.32 0 2.64 0 4 0 C4 0.66 4 1.32 4 2 C4.66 2 5.32 2 6 2 C6 1.34 6 0.68 6 0 C11.42553191 -0.36170213 11.42553191 -0.36170213 13.6875 1.0625 C15.70439276 4.03981788 15.28491047 6.64825295 15.1875 10.1875 C15.16042969 11.45980469 15.13335937 12.73210937 15.10546875 14.04296875 C15.07066406 15.01878906 15.03585937 15.99460938 15 17 C13.35 17 11.7 17 10 17 C10 12.71 10 8.42 10 4 C8.35 4.66 6.7 5.32 5 6 C4.67 9.63 4.34 13.26 4 17 C2.68 17 1.36 17 0 17 C0 11.39 0 5.78 0 0 Z " fill="#264469" transform="translate(272,235)"/>
<path d="M0 0 C2.475 0.495 2.475 0.495 5 1 C5.33 0.67 5.66 0.34 6 0 C8.875 -0.3125 8.875 -0.3125 12 0 C14.51557707 2.38717174 14.97755961 3.75225809 15.29296875 7.234375 C15.25816406 8.39453125 15.22335938 9.5546875 15.1875 10.75 C15.16042969 11.92046875 15.13335937 13.0909375 15.10546875 14.296875 C15.07066406 15.18890625 15.03585938 16.0809375 15 17 C13.35 17 11.7 17 10 17 C10 12.71 10 8.42 10 4 C8.35 4.33 6.7 4.66 5 5 C4.67 8.96 4.34 12.92 4 17 C2.68 17 1.36 17 0 17 C0 11.39 0 5.78 0 0 Z " fill="#334D6F" transform="translate(212,235)"/>
<path d="M0 0 C1.2684375 0.12375 1.2684375 0.12375 2.5625 0.25 C4.59370707 3.29681061 4.80909875 3.85118324 4.7578125 7.26171875 C4.74814453 8.39770508 4.74814453 8.39770508 4.73828125 9.55664062 C4.72152344 10.34232422 4.70476562 11.12800781 4.6875 11.9375 C4.67847656 12.73478516 4.66945313 13.53207031 4.66015625 14.35351562 C4.63661585 16.319139 4.60074547 18.28460775 4.5625 20.25 C-1.1875 20.375 -1.1875 20.375 -3.4375 19.25 C-3.46433987 16.27077407 -3.48426037 13.29178705 -3.5 10.3125 C-3.50837891 9.46236328 -3.51675781 8.61222656 -3.52539062 7.73632812 C-3.52861328 6.92744141 -3.53183594 6.11855469 -3.53515625 5.28515625 C-3.54039307 4.5362915 -3.54562988 3.78742676 -3.55102539 3.01586914 C-3.37082864 0.21293768 -2.79335946 0.28649841 0 0 Z " fill="#0F345D" transform="translate(99.4375,237.75)"/>
<path d="M0 0 C1.65 0 3.3 0 5 0 C5 1.32 5 2.64 5 4 C5.99 4 6.98 4 8 4 C8 5.32 8 6.64 8 8 C7.01 8 6.02 8 5 8 C5 10.97 5 13.94 5 17 C5.99 17 6.98 17 8 17 C8 18.32 8 19.64 8 21 C5.125 21.125 5.125 21.125 2 21 C0 19 0 19 -0.1953125 16.3984375 C-0.17210937 15.40070313 -0.14890625 14.40296875 -0.125 13.375 C-0.10695312 12.37210938 -0.08890625 11.36921875 -0.0703125 10.3359375 C-0.04710937 9.56507813 -0.02390625 8.79421875 0 8 C-0.66 8 -1.32 8 -2 8 C-2 6.68 -2 5.36 -2 4 C-1.34 4 -0.68 4 0 4 C0 2.68 0 1.36 0 0 Z " fill="#4C6382" transform="translate(231,231)"/>
<path d="M0 0 C1.65 0 3.3 0 5 0 C5 1.32 5 2.64 5 4 C5.99 4 6.98 4 8 4 C8 5.32 8 6.64 8 8 C7.01 8 6.02 8 5 8 C5 11.3 5 14.6 5 18 C5.99 18 6.98 18 8 18 C8 18.99 8 19.98 8 21 C5.125 21.125 5.125 21.125 2 21 C0 19 0 19 -0.1953125 16.3984375 C-0.17210937 15.40070313 -0.14890625 14.40296875 -0.125 13.375 C-0.10695313 12.37210938 -0.08890625 11.36921875 -0.0703125 10.3359375 C-0.04710937 9.56507813 -0.02390625 8.79421875 0 8 C-0.66 8 -1.32 8 -2 8 C-2 6.68 -2 5.36 -2 4 C-1.34 4 -0.68 4 0 4 C0 2.68 0 1.36 0 0 Z " fill="#48607D" transform="translate(418,231)"/>
<path d="M0 0 C0.66 0 1.32 0 2 0 C2 5.61 2 11.22 2 17 C-1 16 -1 16 -2.30078125 13.45703125 C-2.86152344 12.64621094 -3.42226562 11.83539063 -4 11 C-6.96381518 10.39518228 -6.96381518 10.39518228 -10.1875 10.6875 C-11.27417969 10.73261719 -12.36085938 10.77773437 -13.48046875 10.82421875 C-14.31191406 10.88222656 -15.14335938 10.94023437 -16 11 C-15.125 7.125 -15.125 7.125 -14 6 C-12.20947141 5.89501787 -10.41739394 5.81586224 -8.625 5.75 C-5.65893407 5.5845307 -5.65893407 5.5845307 -3 5 C-0.8613923 2.61012067 -0.8613923 2.61012067 0 0 Z " fill="#284769" transform="translate(118,231)"/>
<path d="M0 0 C5.60504881 -0.04951793 11.20996965 -0.08577555 16.81518555 -0.10986328 C18.7211326 -0.11990737 20.62706429 -0.13354516 22.53295898 -0.15087891 C25.27591752 -0.17519718 28.01867191 -0.18649912 30.76171875 -0.1953125 C32.03543587 -0.21079636 32.03543587 -0.21079636 33.33488464 -0.22659302 C37.68255955 -0.22741351 41.0400665 -0.03452583 45 2 C45.042721 3.66611905 45.04063832 5.33382885 45 7 C44.67 7.33 44.34 7.66 44 8 C43.76924918 9.34747084 43.58846937 10.70377565 43.4375 12.0625 C43.293125 13.361875 43.14875 14.66125 43 16 C42.67 16 42.34 16 42 16 C42 11.71 42 7.42 42 3 C21.705 2.505 21.705 2.505 1 2 C0.67 1.34 0.34 0.68 0 0 Z " fill="#133865" transform="translate(92,195)"/>
<path d="M0 0 C3.3 0 6.6 0 10 0 C10 1.32 10 2.64 10 4 C9.03320312 4.32097656 9.03320312 4.32097656 8.046875 4.6484375 C5.72160885 5.8473523 5.72160885 5.8473523 5.390625 8.6015625 C5.34421875 9.59929687 5.2978125 10.59703125 5.25 11.625 C5.19328125 12.62789062 5.1365625 13.63078125 5.078125 14.6640625 C5.05234375 15.43492187 5.0265625 16.20578125 5 17 C3.35 17 1.7 17 0 17 C0 11.39 0 5.78 0 0 Z " fill="#46607D" transform="translate(359,235)"/>
<path d="M0 0 C7 0 7 0 10 2 C10.3125 5 10.3125 5 10 8 C8 10 8 10 4.875 10.125 C3.92625 10.08375 2.9775 10.0425 2 10 C2 11.98 2 13.96 2 16 C1.34 16 0.68 16 0 16 C0 10.72 0 5.44 0 0 Z " fill="#969593" transform="translate(247,261)"/>
<path d="M0 0 C0.66 0.33 1.32 0.66 2 1 C2 2.32 2 3.64 2 5 C2.66 5 3.32 5 4 5 C4.33 8.96 4.66 12.92 5 17 C5.99 17.33 6.98 17.66 8 18 C8 18.66 8 19.32 8 20 C4.04 20 0.08 20 -4 20 C-4 19.34 -4 18.68 -4 18 C-3.34 17.67 -2.68 17.34 -2 17 C-1.7137306 14.30847736 -1.53256862 11.69902132 -1.4375 9 C-1.11929275 1.11929275 -1.11929275 1.11929275 0 0 Z " fill="#27B9B9" transform="translate(128,241)"/>
<path d="M0 0 C6.27 0 12.54 0 19 0 C19 3.96 19 7.92 19 12 C18.01 12 17.02 12 16 12 C15.731875 11.21625 15.46375 10.4325 15.1875 9.625 C14.15185568 6.71885077 14.15185568 6.71885077 11 5 C8.61322924 4.70547416 6.21373906 4.5071783 3.8125 4.375 C1.90404297 4.26285156 1.90404297 4.26285156 -0.04296875 4.1484375 C-1.01878906 4.09945312 -1.99460937 4.05046875 -3 4 C-3 3.67 -3 3.34 -3 3 C-1.02 2.67 0.96 2.34 3 2 C2.01 1.34 1.02 0.68 0 0 Z " fill="#16365B" transform="translate(108,218)"/>
<path d="M0 0 C0.99 0.33 1.98 0.66 3 1 C3 4.96 3 8.92 3 13 C3.66 13 4.32 13 5 13 C5.33 12.01 5.66 11.02 6 10 C6.66 10 7.32 10 8 10 C7.67 11.65 7.34 13.3 7 15 C6.34 15 5.68 15 5 15 C5 15.66 5 16.32 5 17 C4.34 17 3.68 17 3 17 C3 17.66 3 18.32 3 19 C-1.24822374 18.52797514 -3.19989709 16.03344482 -6 13 C-5.67 12.01 -5.34 11.02 -5 10 C-3.68 10.66 -2.36 11.32 -1 12 C-0.67 8.04 -0.34 4.08 0 0 Z " fill="#46C0C1" transform="translate(117,261)"/>
<path d="M0 0 C2.4375 0.8125 2.4375 0.8125 4.4375 2.8125 C4.77052312 5.9429173 4.91421956 7.99148298 3.3125 10.75 C1.4375 11.8125 1.4375 11.8125 -1.6875 11.625 C-2.63625 11.356875 -3.585 11.08875 -4.5625 10.8125 C-5.96185013 8.01379973 -5.81515405 5.90751208 -5.5625 2.8125 C-3.8855372 0.07640281 -3.22049925 -0.23564629 0 0 Z " fill="#979694" transform="translate(233.5625,265.1875)"/>
<path d="M0 0 C2.4375 0.8125 2.4375 0.8125 4.4375 2.8125 C4.78240322 6.86511287 4.73913882 8.36004176 2.4375 11.8125 C0.1275 11.4825 -2.1825 11.1525 -4.5625 10.8125 C-5.89514887 3.42235626 -5.89514887 3.42235626 -4.4375 0.75 C-2.5625 -0.1875 -2.5625 -0.1875 0 0 Z " fill="#959592" transform="translate(312.5625,265.1875)"/>
<path d="M0 0 C5 0 5 0 8 2 C8.39507893 6.34586828 8.45331002 8.32003497 6 12 C4.02 12 2.04 12 0 12 C0 8.04 0 4.08 0 0 Z " fill="#F2F2F2" transform="translate(262,263)"/>
<path d="M0 0 C0.66 0 1.32 0 2 0 C2 0.66 2 1.32 2 2 C2.66 2 3.32 2 4 2 C4 2.66 4 3.32 4 4 C3.34 4 2.68 4 2 4 C2 6.64 2 9.28 2 12 C2.66 12 3.32 12 4 12 C4 12.66 4 13.32 4 14 C2.68 13.67 1.36 13.34 0 13 C0 10.03 0 7.06 0 4 C-1.65 4 -3.3 4 -5 4 C-4.67 6.97 -4.34 9.94 -4 13 C-4.66 13 -5.32 13 -6 13 C-6.66 12.34 -7.32 11.68 -8 11 C-9.98 11.99 -9.98 11.99 -12 13 C-11.62875 12.0925 -11.2575 11.185 -10.875 10.25 C-9.69640701 7.11902985 -9.69640701 7.11902985 -10.875 4.625 C-11.24625 4.08875 -11.6175 3.5525 -12 3 C-10.824375 3.309375 -10.824375 3.309375 -9.625 3.625 C-8.75875 3.74875 -7.8925 3.8725 -7 4 C-6.34 3.34 -5.68 2.68 -5 2 C-2.375 1.875 -2.375 1.875 0 2 C0 1.34 0 0.68 0 0 Z " fill="#9D9C99" transform="translate(209,263)"/>
<path d="M0 0 C2.475 0.495 2.475 0.495 5 1 C5.33 0.67 5.66 0.34 6 0 C7.99958364 -0.04080783 10.00045254 -0.04254356 12 0 C12 0.33 12 0.66 12 1 C10.35 1.33 8.7 1.66 7 2 C7.66 2.66 8.32 3.32 9 4 C7.68 4.33 6.36 4.66 5 5 C4.67 8.96 4.34 12.92 4 17 C2.68 17 1.36 17 0 17 C0 11.39 0 5.78 0 0 Z " fill="#425A77" transform="translate(372,235)"/>
<path d="M0 0 C3.375 -0.125 3.375 -0.125 7 0 C9 2 9 2 9.25 4.4375 C9 7 9 7 7 10 C3.375 10.1875 3.375 10.1875 0 10 C0 6.7 0 3.4 0 0 Z " fill="#F5D0D1" transform="translate(144,284)"/>
<path d="M0 0 C-0.50603992 2.16874252 -0.99983813 3.99967627 -2 6 C0.97 6.495 0.97 6.495 4 7 C-0.00952575 8.33650858 -3.82016197 8.20225023 -8 8 C-8.66 7.34 -9.32 6.68 -10 6 C-9.625 2.375 -9.625 2.375 -9 -1 C-5.23375329 -2.25541557 -3.62811066 -1.37061958 0 0 Z " fill="#2D496C" transform="translate(264,244)"/>
<path d="M0 0 C1.9375 0.75 1.9375 0.75 3.9375 2.75 C3.9375 4.07 3.9375 5.39 3.9375 6.75 C1.6275 6.75 -0.6825 6.75 -3.0625 6.75 C-3.0625 7.74 -3.0625 8.73 -3.0625 9.75 C0.4025 9.255 0.4025 9.255 3.9375 8.75 C2.9475 10.235 2.9475 10.235 1.9375 11.75 C-0.88440981 12.18413997 -2.44237679 12.10140315 -4.9375 10.6875 C-6.76098531 7.54705307 -5.9283284 5.1514687 -5.0625 1.75 C-2.0625 -0.25 -2.0625 -0.25 0 0 Z " fill="#9B9A97" transform="translate(374.0625,265.25)"/>
<path d="M0 0 C1.9375 0.6875 1.9375 0.6875 3.9375 1.6875 C3.9375 3.3375 3.9375 4.9875 3.9375 6.6875 C1.6275 6.6875 -0.6825 6.6875 -3.0625 6.6875 C-2.7325 7.3475 -2.4025 8.0075 -2.0625 8.6875 C-0.0825 8.6875 1.8975 8.6875 3.9375 8.6875 C3.9375 9.3475 3.9375 10.0075 3.9375 10.6875 C-2.8125 11.8125 -2.8125 11.8125 -5.0625 10.6875 C-5.14346803 9.23007537 -5.20167774 7.77137193 -5.25 6.3125 C-5.28480469 5.50039063 -5.31960938 4.68828125 -5.35546875 3.8515625 C-5.25878906 3.13742187 -5.16210938 2.42328125 -5.0625 1.6875 C-2.0625 -0.3125 -2.0625 -0.3125 0 0 Z " fill="#989794" transform="translate(347.0625,265.3125)"/>
<path d="M0 0 C3.29714793 0.32971479 4.6226839 0.6226839 7 3 C7 4.32 7 5.64 7 7 C4.69 7 2.38 7 0 7 C0 7.99 0 8.98 0 10 C1.98 9.67 3.96 9.34 6 9 C5.67 9.99 5.34 10.98 5 12 C2.6875 12.25 2.6875 12.25 0 12 C-1.875 10.375 -1.875 10.375 -3 8 C-2.77962372 4.32706204 -2.63033454 2.63033454 0 0 Z " fill="#ADACAA" transform="translate(188,265)"/>
<path d="M0 0 C3.98175544 2.10148204 6.35039045 4.36905358 9 8 C8.34 9.65 7.68 11.3 7 13 C5.35 13 3.7 13 2 13 C2 13.66 2 14.32 2 15 C3.32 15 4.64 15 6 15 C6 15.66 6 16.32 6 17 C4.35 17 2.7 17 1 17 C0.67 18.32 0.34 19.64 0 21 C0 17.37 0 13.74 0 10 C1.32 9.34 2.64 8.68 4 8 C3.67 6.35 3.34 4.7 3 3 C2.01 2.67 1.02 2.34 0 2 C0 1.34 0 0.68 0 0 Z " fill="#D44C4B" transform="translate(155,273)"/>
<path d="M0 0 C0.66 0 1.32 0 2 0 C2 0.99 2 1.98 2 3 C2.99 3.33 3.98 3.66 5 4 C4.01 4 3.02 4 2 4 C2 6.64 2 9.28 2 12 C2.99 12 3.98 12 5 12 C5 12.66 5 13.32 5 14 C3.35 13.67 1.7 13.34 0 13 C0 10.36 0 7.72 0 5 C-1.98 5 -3.96 5 -6 5 C-6 7.97 -6 10.94 -6 14 C-6.66 14 -7.32 14 -8 14 C-8 10.37 -8 6.74 -8 3 C-5.36 2.67 -2.72 2.34 0 2 C0 1.34 0 0.68 0 0 Z " fill="#A8A7A5" transform="translate(362,263)"/>
<path d="M0 0 C3.3 0 6.6 0 10 0 C10 0.66 10 1.32 10 2 C7.69 2 5.38 2 3 2 C3 3.65 3 5.3 3 7 C4.98 7 6.96 7 9 7 C9 7.66 9 8.32 9 9 C7.02 9 5.04 9 3 9 C3 11.31 3 13.62 3 16 C2.01 15.67 1.02 15.34 0 15 C0 10.05 0 5.1 0 0 Z " fill="#A2A2A0" transform="translate(275,261)"/>
<path d="M0 0 C3.81936528 1.55603771 6.26044438 3.95604931 9 7 C9 7.66 9 8.32 9 9 C7.02 9.33 5.04 9.66 3 10 C2.67 10.99 2.34 11.98 2 13 C-0.475 12.01 -0.475 12.01 -3 11 C-3 10.34 -3 9.68 -3 9 C-2.34 8.67 -1.68 8.34 -1 8 C-0.53476937 6.10466658 -0.53476937 6.10466658 -0.375 3.9375 C-0.25125 2.638125 -0.1275 1.33875 0 0 Z " fill="#304F75" transform="translate(138,202)"/>
<path d="M0 0 C1.8125 1.375 1.8125 1.375 3 3 C3 3.66 3 4.32 3 5 C2.4225 4.67 1.845 4.34 1.25 4 C-1.19883862 2.72924102 -1.19883862 2.72924102 -5 3 C-6.36952673 5.73905345 -6.12621361 7.97087332 -6 11 C-5.67 11.66 -5.34 12.32 -5 13 C-3.35 13 -1.7 13 0 13 C0.33 12.34 0.66 11.68 1 11 C1.66 11 2.32 11 3 11 C2.625 12.9375 2.625 12.9375 2 15 C-0.82883747 16.41441874 -2.87376745 16.31900332 -6 16 C-8.21252984 14.22997613 -8.85494661 12.87390192 -9.31640625 10.09375 C-9.52589162 6.47168039 -9.3777539 4.55963541 -7.3125 1.5 C-4.54877578 -0.29268598 -3.23177469 -0.58006212 0 0 Z " fill="#959493" transform="translate(302,261)"/>
<path d="M0 0 C0.66 0.99 1.32 1.98 2 3 C0.7934375 3.4640625 0.7934375 3.4640625 -0.4375 3.9375 C-2.89080405 4.76335345 -2.89080405 4.76335345 -4 6 C-4.23075082 7.34747084 -4.41153063 8.70377565 -4.5625 10.0625 C-4.706875 11.361875 -4.85125 12.66125 -5 14 C-6.32 13.67 -7.64 13.34 -9 13 C-9.61989796 4.94132653 -9.61989796 4.94132653 -7.3125 1.4375 C-4.56956575 -0.26756724 -3.17044334 -0.58402904 0 0 Z " fill="#25416A" transform="translate(299,235)"/>
<path d="M0 0 C2.4375 0.1875 2.4375 0.1875 3.4375 1.1875 C3.625 4.625 3.625 4.625 3.4375 8.1875 C2.7775 8.8475 2.1175 9.5075 1.4375 10.1875 C-1.49703261 9.82068342 -2.42687246 9.32312754 -4.5625 7.1875 C-4.8125 4.6875 -4.8125 4.6875 -4.5625 2.1875 C-2.5625 0.1875 -2.5625 0.1875 0 0 Z " fill="#EEF1F3" transform="translate(200.5625,238.8125)"/>
<path d="M0 0 C1.4540625 0.0309375 1.4540625 0.0309375 2.9375 0.0625 C2.6075 1.0525 2.2775 2.0425 1.9375 3.0625 C2.5975 3.0625 3.2575 3.0625 3.9375 3.0625 C3.9375 7.3525 3.9375 11.6425 3.9375 16.0625 C2.6175 16.0625 1.2975 16.0625 -0.0625 16.0625 C-0.09988281 15.14726562 -0.13726562 14.23203125 -0.17578125 13.2890625 C-0.24152344 12.10054687 -0.30726563 10.91203125 -0.375 9.6875 C-0.43300781 8.50414062 -0.49101562 7.32078125 -0.55078125 6.1015625 C-0.71964844 5.09867188 -0.88851563 4.09578125 -1.0625 3.0625 C-2.0525 2.4025 -3.0425 1.7425 -4.0625 1.0625 C-3.0625 0.0625 -3.0625 0.0625 0 0 Z " fill="#213E66" transform="translate(382.0625,235.9375)"/>
<path d="M0 0 C2.475 0.495 2.475 0.495 5 1 C5 5.29 5 9.58 5 14 C3.35 14 1.7 14 0 14 C0 9.38 0 4.76 0 0 Z " fill="#41597B" transform="translate(222,238)"/>
<path d="M0 0 C1.98 0.99 3.96 1.98 6 3 C6 3.66 6 4.32 6 5 C-0.93 5 -7.86 5 -15 5 C-15 4.34 -15 3.68 -15 3 C-9.675665 0.67913603 -5.56157448 1.08542997 0 2 C0 1.34 0 0.68 0 0 Z " fill="#1B4066" transform="translate(104,256)"/>
<path d="M0 0 C4.95 0 9.9 0 15 0 C15 1.32 15 2.64 15 4 C14.24074219 4.06058594 13.48148437 4.12117187 12.69921875 4.18359375 C11.70535156 4.26738281 10.71148437 4.35117188 9.6875 4.4375 C8.70136719 4.51871094 7.71523438 4.59992188 6.69921875 4.68359375 C3.90624401 4.91812559 3.90624401 4.91812559 1 6 C0.67 4.02 0.34 2.04 0 0 Z " fill="#4A627E" transform="translate(323,229)"/>
<path d="M0 0 C8.22689076 6.72478992 8.22689076 6.72478992 11 11 C10.33333333 13 9.66666667 15 9 17 C0 6.81093394 0 6.81093394 0 0 Z " fill="#27476F" transform="translate(138,194)"/>
<path d="M0 0 C1.4540625 0.0309375 1.4540625 0.0309375 2.9375 0.0625 C3.1328125 6.1171875 3.1328125 6.1171875 2.9375 8.0625 C2.2775 8.7225 1.6175 9.3825 0.9375 10.0625 C-1.125 9.8125 -1.125 9.8125 -3.0625 9.0625 C-4.42873674 6.33002652 -4.190926 4.08051098 -4.0625 1.0625 C-3.0625 0.0625 -3.0625 0.0625 0 0 Z " fill="#EEF0F3" transform="translate(348.0625,238.9375)"/>
<path d="M0 0 C2.4375 1.5 2.4375 1.5 4 3 C3.67 3.99 3.34 4.98 3 6 C2.67 6 2.34 6 2 6 C1.67 7.65 1.34 9.3 1 11 C0.67 11 0.34 11 0 11 C0 8.69 0 6.38 0 4 C-0.94875 4.020625 -1.8975 4.04125 -2.875 4.0625 C-6 4 -6 4 -8 3 C-8 3.99 -8 4.98 -8 6 C-8.99 6 -9.98 6 -11 6 C-10.6875 4.125 -10.6875 4.125 -10 2 C-6.28986601 -0.47342266 -4.38939738 -0.38503486 0 0 Z " fill="#2F496B" transform="translate(351,235)"/>
<path d="M0 0 C4.62 0 9.24 0 14 0 C14 0.99 14 1.98 14 3 C10.7 3 7.4 3 4 3 C4 4.98 4 6.96 4 9 C2 7.875 2 7.875 0 6 C0 4.02 0 2.04 0 0 Z " fill="#1F3B63" transform="translate(176,230)"/>
<path d="M0 0 C0.66 0 1.32 0 2 0 C2 3.3 2 6.6 2 10 C3.32 10 4.64 10 6 10 C6 11.32 6 12.64 6 14 C4.00045254 14.04254356 1.99958364 14.04080783 0 14 C-1 13 -1 13 -1.1328125 10.3125 C-1.13023437 9.219375 -1.12765625 8.12625 -1.125 7 C-1.12757813 5.906875 -1.13015625 4.81375 -1.1328125 3.6875 C-1 1 -1 1 0 0 Z " fill="#1A3963" transform="translate(233,238)"/>
<path d="M0 0 C7.47232038 -0.36749117 7.47232038 -0.36749117 9.75 1.21875 C11.36575414 3.52119964 11.30855839 4.90315701 11.1875 7.6875 C11.16042969 8.49574219 11.13335937 9.30398437 11.10546875 10.13671875 C11.07066406 10.75160156 11.03585938 11.36648437 11 12 C9.68 11.67 8.36 11.34 7 11 C6.67 8.69 6.34 6.38 6 4 C4.02 3.34 2.04 2.68 0 2 C0 1.34 0 0.68 0 0 Z " fill="#1C3C63" transform="translate(197,236)"/>
<path d="M0 0 C1.875 0.75 1.875 0.75 3.875 1.75 C3.545 3.4 3.215 5.05 2.875 6.75 C1.225 6.75 -0.425 6.75 -2.125 6.75 C-2.125 6.09 -2.125 5.43 -2.125 4.75 C-2.785 4.75 -3.445 4.75 -4.125 4.75 C-4.455 5.41 -4.785 6.07 -5.125 6.75 C-4.465 6.75 -3.805 6.75 -3.125 6.75 C-3.455 7.74 -3.785 8.73 -4.125 9.75 C-6.125 7.75 -6.125 7.75 -6.5 5.3125 C-6.125 2.75 -6.125 2.75 -4.375 0.875 C-2.125 -0.25 -2.125 -0.25 0 0 Z " fill="#385171" transform="translate(405.125,242.25)"/>
<path d="M0 0 C1.65 0 3.3 0 5 0 C5.33 0.66 5.66 1.32 6 2 C4.35 1.67 2.7 1.34 1 1 C1 2.32 1 3.64 1 5 C1.99 4.67 2.98 4.34 4 4 C4.99 5.32 5.98 6.64 7 8 C5.35 9.65 3.7 11.3 2 13 C-0.125 11 -0.125 11 -2 8 C-1.75256577 5.08995833 -0.94868985 2.79863507 0 0 Z " fill="#D94240" transform="translate(156,290)"/>
<path d="M0 0 C1.67542976 0.28604898 3.34385343 0.61781233 5 1 C5.125 7.75 5.125 7.75 4 10 C2.68 10 1.36 10 0 10 C-1.49106457 7.01787087 -1.11941467 4.28390342 -1 1 C-0.67 0.67 -0.34 0.34 0 0 Z " fill="#F5F7F9" transform="translate(296,239)"/>
<path d="M0 0 C0 4.62 0 9.24 0 14 C-1.32 14 -2.64 14 -4 14 C-4 9.71 -4 5.42 -4 1 C-2 0 -2 0 0 0 Z " fill="#244268" transform="translate(287,238)"/>
<path d="M0 0 C0.66 0 1.32 0 2 0 C2.33 3.3 2.66 6.6 3 10 C3.99 10.33 4.98 10.66 6 11 C6 11.99 6 12.98 6 14 C4.00045254 14.04254356 1.99958364 14.04080783 0 14 C-1 13 -1 13 -1.1328125 10.3125 C-1.13023437 9.219375 -1.12765625 8.12625 -1.125 7 C-1.12757813 5.906875 -1.13015625 4.81375 -1.1328125 3.6875 C-1 1 -1 1 0 0 Z " fill="#203E64" transform="translate(420,238)"/>
<path d="M0 0 C2.67216922 0.03831067 3.82779804 0.06424878 6.125 1.5 C7.125 3.25 7.125 3.25 7.125 7.25 C6.465 6.92 5.805 6.59 5.125 6.25 C4.135 6.25 3.145 6.25 2.125 6.25 C2.125 5.59 2.125 4.93 2.125 4.25 C-0.515 4.58 -3.155 4.91 -5.875 5.25 C-4.75884372 0.30702218 -4.75884372 0.30702218 0 0 Z " fill="#2F4868" transform="translate(260.875,234.75)"/>
<path d="M0 0 C0.78503906 0.00386719 1.57007813 0.00773438 2.37890625 0.01171875 C4.4375 0.3125 4.4375 0.3125 6.4375 2.3125 C6.0625 4.9375 6.0625 4.9375 5.4375 7.3125 C3.7875 6.9825 2.1375 6.6525 0.4375 6.3125 C0.4375 4.9925 0.4375 3.6725 0.4375 2.3125 C-2.2025 2.6425 -4.8425 2.9725 -7.5625 3.3125 C-5.1824966 0.41211 -3.72080722 -0.0796878 0 0 Z " fill="#47C1BD" transform="translate(136.5625,229.6875)"/>
<path d="M0 0 C1 1 1 1 1.09765625 3.06640625 C1.08605469 3.89011719 1.07445312 4.71382813 1.0625 5.5625 C1.05347656 6.38878906 1.04445313 7.21507812 1.03515625 8.06640625 C1.02355469 8.70449219 1.01195312 9.34257812 1 10 C0.01 10.495 0.01 10.495 -1 11 C-1.33 8.03 -1.66 5.06 -2 2 C-2.99 2 -3.98 2 -5 2 C-5.33 4.97 -5.66 7.94 -6 11 C-6.66 11 -7.32 11 -8 11 C-8 7.37 -8 3.74 -8 0 C-4.3147485 -0.92131287 -3.34188735 -1.15237495 0 0 Z " fill="#9F9E9C" transform="translate(328,266)"/>
<path d="M0 0 C3.96 0 7.92 0 12 0 C12 0.66 12 1.32 12 2 C10.35 2 8.7 2 7 2 C7 6.29 7 10.58 7 15 C6.34 15 5.68 15 5 15 C5 10.71 5 6.42 5 2 C3.35 2 1.7 2 0 2 C0 1.34 0 0.68 0 0 Z " fill="#8F908D" transform="translate(174,261)"/>
<path d="M0 0 C2.875 -0.1875 2.875 -0.1875 6 0 C6.66 0.99 7.32 1.98 8 3 C7.01 3.33 6.02 3.66 5 4 C5 8.29 5 12.58 5 17 C4.67 17 4.34 17 4 17 C4 12.71 4 8.42 4 4 C2.02 4.66 0.04 5.32 -2 6 C-2 4.68 -2 3.36 -2 2 C-1.34 2 -0.68 2 0 2 C0 1.34 0 0.68 0 0 Z " fill="#485D7C" transform="translate(278,235)"/>
<path d="M0 0 C5.61 0 11.22 0 17 0 C13.40590608 2.39606261 10.20777143 3.94805714 6 5 C2.625 4.125 2.625 4.125 0 3 C0 2.01 0 1.02 0 0 Z " fill="#1D3E66" transform="translate(90,218)"/>
<path d="M0 0 C0.33 0 0.66 0 1 0 C1.33 2.97 1.66 5.94 2 9 C-1.96 9 -5.92 9 -10 9 C-10 8.01 -10 7.02 -10 6 C-10.66 6 -11.32 6 -12 6 C-11.67 5.01 -11.34 4.02 -11 3 C-10.34 3.33 -9.68 3.66 -9 4 C-9 4.66 -9 5.32 -9 6 C-7.02 5.67 -5.04 5.34 -3 5 C-2.67 5.99 -2.34 6.98 -2 8 C-1.855625 7.4225 -1.71125 6.845 -1.5625 6.25 C-1.04166667 4.16666667 -0.52083333 2.08333333 0 0 Z " fill="#2D4868" transform="translate(412,243)"/>
<path d="M0 0 C1.98 0 3.96 0 6 0 C6.38218767 1.65614657 6.71395102 3.32457024 7 5 C6 6 6 6 3.4375 6.0625 C2.2309375 6.0315625 2.2309375 6.0315625 1 6 C0.67 7.32 0.34 8.64 0 10 C0 6.7 0 3.4 0 0 Z " fill="#EFC0C2" transform="translate(136,284)"/>
<path d="M0 0 C3.69230769 0.69230769 3.69230769 0.69230769 5 2 C5.04063832 3.66617115 5.042721 5.33388095 5 7 C3.34385343 7.38218767 1.67542976 7.71395102 0 8 C-1 7 -1 7 -1.125 4 C-1 1 -1 1 0 0 Z " fill="#F4F4F4" transform="translate(231,267)"/>
<path d="M0 0 C0.99 0 1.98 0 3 0 C3 1.32 3 2.64 3 4 C2.030625 4.28875 1.06125 4.5775 0.0625 4.875 C-3.10664203 5.64214682 -3.10664203 5.64214682 -4 8 C-6 6 -6 6 -6.125 3.375 C-6.08375 2.59125 -6.0425 1.8075 -6 1 C-4.7934375 1.0309375 -4.7934375 1.0309375 -3.5625 1.0625 C-1.06645115 1.29633621 -1.06645115 1.29633621 0 0 Z " fill="#14355C" transform="translate(366,235)"/>
<path d="M0 0 C2.4375 0.8125 2.4375 0.8125 5 2 C5.33 2.99 5.66 3.98 6 5 C5.34 5.66 4.68 6.32 4 7 C3.01 7 2.02 7 1 7 C0.67 7.99 0.34 8.98 0 10 C-0.99 9.67 -1.98 9.34 -3 9 C-3 8.01 -3 7.02 -3 6 C-2.01 5.34 -1.02 4.68 0 4 C0 2.68 0 1.36 0 0 Z " fill="#D62A2C" transform="translate(138,291)"/>
<path d="M0 0 C3.875 0.875 3.875 0.875 5 2 C5.04063832 3.66617115 5.042721 5.33388095 5 7 C3.34385343 7.38218767 1.67542976 7.71395102 0 8 C-0.33 7.67 -0.66 7.34 -1 7 C-0.71269945 4.66055264 -0.38063221 2.3260857 0 0 Z " fill="#F7F7F7" transform="translate(310,267)"/>
<path d="M0 0 C2.31 0.33 4.62 0.66 7 1 C7.97798721 4.79568461 7.92653069 7.5005999 7.0625 11.3125 C6.86785156 12.19550781 6.67320312 13.07851562 6.47265625 13.98828125 C6.31667969 14.65214844 6.16070312 15.31601563 6 16 C5.67 16 5.34 16 5 16 C5 11.71 5 7.42 5 3 C3.35 3 1.7 3 0 3 C0 2.01 0 1.02 0 0 Z " fill="#1D3D67" transform="translate(129,195)"/>
<path d="M0 0 C0 0.33 0 0.66 0 1 C-2.31 1 -4.62 1 -7 1 C-7 1.66 -7 2.32 -7 3 C-5.35 3 -3.7 3 -2 3 C-4.63904371 4.41377341 -7.07120629 5.37240135 -10 6 C-10.33 7.98 -10.66 9.96 -11 12 C-11.33 12 -11.66 12 -12 12 C-12.48 4.8 -12.48 4.8 -10.5 1.5 C-6.85991277 -0.68405234 -4.20345267 -0.28023018 0 0 Z " fill="#3C5575" transform="translate(204,235)"/>
<path d="M0 0 C0 0.66 0 1.32 0 2 C-0.99 2.495 -0.99 2.495 -2 3 C-2.46523063 4.89533342 -2.46523063 4.89533342 -2.625 7.0625 C-2.74875 8.361875 -2.8725 9.66125 -3 11 C-3.99 11 -4.98 11 -6 11 C-6 7.7 -6 4.4 -6 1 C-2 0 -2 0 0 0 Z " fill="#A7A7A4" transform="translate(386,265)"/>
<path d="M0 0 C0.66 0 1.32 0 2 0 C2 0.66 2 1.32 2 2 C2.66 2 3.32 2 4 2 C4 2.66 4 3.32 4 4 C3.34 4 2.68 4 2 4 C2 6.64 2 9.28 2 12 C2.66 12 3.32 12 4 12 C4 12.66 4 13.32 4 14 C2.68 13.67 1.36 13.34 0 13 C0 10.03 0 7.06 0 4 C-0.66 3.67 -1.32 3.34 -2 3 C-1.34 3 -0.68 3 0 3 C0 2.01 0 1.02 0 0 Z " fill="#94938F" transform="translate(209,263)"/>
<path d="M0 0 C3.06188727 4.08251636 3.37243503 4.56497929 3.1875 9.25 C3.16042969 10.14203125 3.13335937 11.0340625 3.10546875 11.953125 C3.07066406 12.62859375 3.03585937 13.3040625 3 14 C2.01 14.33 1.02 14.66 0 15 C0 10.05 0 5.1 0 0 Z " fill="#173C62" transform="translate(373,236)"/>
<path d="M0 0 C0.66 0 1.32 0 2 0 C2 0.66 2 1.32 2 2 C2.99 2.33 3.98 2.66 5 3 C4.01 4.485 4.01 4.485 3 6 C2.54605448 8.27912938 2.54605448 8.27912938 2.375 10.6875 C2.30023438 11.49574219 2.22546875 12.30398437 2.1484375 13.13671875 C2.09945312 13.75160156 2.05046875 14.36648437 2 15 C1.34 15 0.68 15 0 15 C0 10.05 0 5.1 0 0 Z " fill="#173A65" transform="translate(213,236)"/>
<path d="M0 0 C0.99 1.32 1.98 2.64 3 4 C3.99 3.67 4.98 3.34 6 3 C6 5.64 6 8.28 6 11 C5.01 11 4.02 11 3 11 C2.731875 10.236875 2.46375 9.47375 2.1875 8.6875 C1.05575888 6.12619116 0.08776599 4.80307062 -2 3 C-1.34 2.01 -0.68 1.02 0 0 Z " fill="#27476A" transform="translate(121,219)"/>
<path d="M0 0 C0.99 0.33 1.98 0.66 3 1 C3 4.96 3 8.92 3 13 C2.67 13 2.34 13 2 13 C2 11.02 2 9.04 2 7 C-0.31 6.67 -2.62 6.34 -5 6 C-5 5.34 -5 4.68 -5 4 C-3.35 4 -1.7 4 0 4 C0 2.68 0 1.36 0 0 Z " fill="#D44143" transform="translate(162,282)"/>
<path d="M0 0 C2.97 0 5.94 0 9 0 C9 1.32 9 2.64 9 4 C6.03 4 3.06 4 0 4 C0 2.68 0 1.36 0 0 Z " fill="#2B496D" transform="translate(242,241)"/>
<path d="M0 0 C2.97 0 5.94 0 9 0 C9 1.32 9 2.64 9 4 C6.03 4 3.06 4 0 4 C0 2.68 0 1.36 0 0 Z " fill="#23456B" transform="translate(310,241)"/>
<path d="M0 0 C0.66 0 1.32 0 2 0 C2 0.99 2 1.98 2 3 C2.66 3.33 3.32 3.66 4 4 C3.34 4 2.68 4 2 4 C2 6.64 2 9.28 2 12 C2.66 12 3.32 12 4 12 C4 12.66 4 13.32 4 14 C2.68 13.67 1.36 13.34 0 13 C0 10.03 0 7.06 0 4 C-0.66 3.67 -1.32 3.34 -2 3 C-1.34 3 -0.68 3 0 3 C0 2.01 0 1.02 0 0 Z " fill="#8D8C8A" transform="translate(222,263)"/>
<path d="M0 0 C0.598125 0.20625 1.19625 0.4125 1.8125 0.625 C1.8125 2.275 1.8125 3.925 1.8125 5.625 C-0.1675 5.625 -2.1475 5.625 -4.1875 5.625 C-4.5175 4.305 -4.8475 2.985 -5.1875 1.625 C-2.1875 -0.375 -2.1875 -0.375 0 0 Z " fill="#C3C2C0" transform="translate(347.1875,265.375)"/>
<path d="M0 0 C2.31 0 4.62 0 7 0 C7 1.32 7 2.64 7 4 C4.69 4.33 2.38 4.66 0 5 C0 3.35 0 1.7 0 0 Z " fill="#4ABFC0" transform="translate(107,246)"/>
<path d="M0 0 C1.14926266 0.95421808 2.29430541 1.91352045 3.4375 2.875 C4.07558594 3.40867188 4.71367187 3.94234375 5.37109375 4.4921875 C7 6 7 6 8 8 C5.66705225 8.04241723 3.33297433 8.04092937 1 8 C0 7 0 7 -0.0625 3.4375 C-0.041875 2.303125 -0.02125 1.16875 0 0 Z " fill="#E7EBEF" transform="translate(139,202)"/>
<path d="M0 0 C0.33 0 0.66 0 1 0 C1.33 3.63 1.66 7.26 2 11 C3.98 11.66 5.96 12.32 8 13 C7.360625 13.268125 6.72125 13.53625 6.0625 13.8125 C3.66868314 14.88667752 3.66868314 14.88667752 3 18 C-0.81636773 12.27544841 -0.29282789 6.70250505 0 0 Z " fill="#D14344" transform="translate(131,282)"/>
<path d="M0 0 C5.94 0 11.88 0 18 0 C18 1.32 18 2.64 18 4 C16.02 4 14.04 4 12 4 C12 3.34 12 2.68 12 2 C8.04 1.67 4.08 1.34 0 1 C0 0.67 0 0.34 0 0 Z " fill="#264165" transform="translate(110,290)"/>
<path d="M0 0 C1.65 0 3.3 0 5 0 C5.38218767 1.65614657 5.71395102 3.32457024 6 5 C5 6 5 6 2.4375 6.0625 C1.2309375 6.0315625 1.2309375 6.0315625 0 6 C0 4.02 0 2.04 0 0 Z " fill="#F8F7F7" transform="translate(249,263)"/>
<path d="M0 0 C1.134375 0.020625 2.26875 0.04125 3.4375 0.0625 C3.1075 1.3825 2.7775 2.7025 2.4375 4.0625 C-2.0175 4.5575 -2.0175 4.5575 -6.5625 5.0625 C-4.06692478 0.07134956 -4.06692478 0.07134956 0 0 Z " fill="#2E4669" transform="translate(406.5625,234.9375)"/>
<path d="M0 0 C1.98 0 3.96 0 6 0 C6 0.66 6 1.32 6 2 C4.68 2 3.36 2 2 2 C2 2.66 2 3.32 2 4 C3.32 4 4.64 4 6 4 C6 4.66 6 5.32 6 6 C4.35 6 2.7 6 1 6 C0.67 7.32 0.34 8.64 0 10 C0 6.7 0 3.4 0 0 Z " fill="#F5CECF" transform="translate(155,284)"/>
<path d="M0 0 C0.33 0 0.66 0 1 0 C1 3.3 1 6.6 1 10 C0.34 9.01 -0.32 8.02 -1 7 C-1.99 7.66 -2.98 8.32 -4 9 C-6.6875 8.625 -6.6875 8.625 -9 8 C-9 7.34 -9 6.68 -9 6 C-6.69 6 -4.38 6 -2 6 C-1.34 4.02 -0.68 2.04 0 0 Z " fill="#EEEEED" transform="translate(353,266)"/>
<path d="M0 0 C0.99 1.485 0.99 1.485 2 3 C2.66 2.34 3.32 1.68 4 1 C4 3.97 4 6.94 4 10 C2.68 10 1.36 10 0 10 C0 6.7 0 3.4 0 0 Z " fill="#264769" transform="translate(382,242)"/>
<path d="M0 0 C0.66 0 1.32 0 2 0 C2 2.97 2 5.94 2 9 C0.68 9 -0.64 9 -2 9 C-2.25 3.375 -2.25 3.375 0 0 Z " fill="#1E4060" transform="translate(224,243)"/>
<path d="M0 0 C0.66 0 1.32 0 2 0 C1.835 0.495 1.67 0.99 1.5 1.5 C0.79311182 5.03444089 0.93994845 8.39690701 1 12 C0.01 12 -0.98 12 -2 12 C-3.4783226 9.04335481 -3.06032783 6.25770263 -3 3 C-2.01 3 -1.02 3 0 3 C0 2.01 0 1.02 0 0 Z " fill="#1A3A5E" transform="translate(343,238)"/>
<path d="M0 0 C0.33 0 0.66 0 1 0 C1 3.96 1 7.92 1 12 C1.66 12 2.32 12 3 12 C3.33 11.01 3.66 10.02 4 9 C4.66 9 5.32 9 6 9 C5.67 10.65 5.34 12.3 5 14 C4.34 14 3.68 14 3 14 C2.67 14.66 2.34 15.32 2 16 C2 15.01 2 14.02 2 13 C1.34 13 0.68 13 0 13 C0 8.71 0 4.42 0 0 Z " fill="#56C4C5" transform="translate(119,262)"/>
<path d="M0 0 C2.125 0.375 2.125 0.375 4 1 C4 1.99 4 2.98 4 4 C4.66 4.33 5.32 4.66 6 5 C3.69 5 1.38 5 -1 5 C-1.33 5.66 -1.66 6.32 -2 7 C-2.125 4.625 -2.125 4.625 -2 2 C-1.34 1.34 -0.68 0.68 0 0 Z " fill="#CCCBCA" transform="translate(372,267)"/>
<path d="M0 0 C2.97 0 5.94 0 9 0 C9.33 1.32 9.66 2.64 10 4 C5.71 4 1.42 4 -3 4 C-3 3.67 -3 3.34 -3 3 C-1.02 2.67 0.96 2.34 3 2 C2.01 1.34 1.02 0.68 0 0 Z " fill="#264665" transform="translate(108,218)"/>
<path d="M0 0 C2.475 0.495 2.475 0.495 5 1 C4.67 2.65 4.34 4.3 4 6 C2.68 6 1.36 6 0 6 C0 4.02 0 2.04 0 0 Z " fill="#DC5150" transform="translate(146,286)"/>
<path d="M0 0 C2.31 0 4.62 0 7 0 C7 1.32 7 2.64 7 4 C4.69 4 2.38 4 0 4 C0 2.68 0 1.36 0 0 Z " fill="#3EBFC1" transform="translate(107,229)"/>
<path d="M0 0 C0.66 0 1.32 0 2 0 C2 0.99 2 1.98 2 3 C2.99 3.33 3.98 3.66 5 4 C4.01 4 3.02 4 2 4 C2 6.64 2 9.28 2 12 C2.99 12 3.98 12 5 12 C5 12.66 5 13.32 5 14 C3.68 13.67 2.36 13.34 1 13 C1 10.03 1 7.06 1 4 C0.34 3.67 -0.32 3.34 -1 3 C-0.67 2.01 -0.34 1.02 0 0 Z " fill="#8F8E8B" transform="translate(362,263)"/>
<path d="M0 0 C1.32 0.33 2.64 0.66 4 1 C4 3.31 4 5.62 4 8 C2.68 7.67 1.36 7.34 0 7 C0 4.69 0 2.38 0 0 Z " fill="#1F3E65" transform="translate(352,239)"/>
<path d="M0 0 C0 0.99 0 1.98 0 3 C-3.3 2.67 -6.6 2.34 -10 2 C-9.67 1.34 -9.34 0.68 -9 0 C-5.65506316 -0.99444068 -3.31044803 -1.10348268 0 0 Z " fill="#D3D8DF" transform="translate(409,239)"/>
<path d="M0 0 C2.97 0 5.94 0 9 0 C9 0.99 9 1.98 9 3 C6.36 3 3.72 3 1 3 C0.67 2.01 0.34 1.02 0 0 Z " fill="#13365C" transform="translate(328,230)"/>
<path d="M0 0 C-0.33 1.65 -0.66 3.3 -1 5 C-2.65 5 -4.3 5 -6 5 C-5.6875 3.0625 -5.6875 3.0625 -5 1 C-2 0 -2 0 0 0 Z " fill="#CFD6DE" transform="translate(409,244)"/>
<path d="M0 0 C0.33 0.66 0.66 1.32 1 2 C1.7425 1.649375 2.485 1.29875 3.25 0.9375 C6.1322726 -0.04509293 7.21176345 -0.0326802 10 1 C9.67 1.99 9.34 2.98 9 4 C6.03 3.67 3.06 3.34 0 3 C0 2.01 0 1.02 0 0 Z " fill="#C7CFD7" transform="translate(254,238)"/>
<path d="M0 0 C0 0.66 0 1.32 0 2 C-3.96 2 -7.92 2 -12 2 C-12 1.34 -12 0.68 -12 0 C-7.91556885 -1.53166168 -4.20544343 -0.63081652 0 0 Z " fill="#3AB9B9" transform="translate(136,259)"/>
<path d="M0 0 C-0.33 1.32 -0.66 2.64 -1 4 C-2.65 4.33 -4.3 4.66 -6 5 C-5.625 3.0625 -5.625 3.0625 -5 1 C-3 0 -3 0 0 0 Z " fill="#D7DDE4" transform="translate(264,244)"/>
<path d="M0 0 C0.99 0.66 1.98 1.32 3 2 C2.67 2.99 2.34 3.98 2 5 C1.67 5 1.34 5 1 5 C0.67 6.65 0.34 8.3 0 10 C-0.33 10 -0.66 10 -1 10 C-1 7.69 -1 5.38 -1 3 C-2.32 2.67 -3.64 2.34 -5 2 C-2.6875 0.875 -2.6875 0.875 0 0 Z " fill="#476080" transform="translate(352,236)"/>
<path d="M0 0 C3 3 3 3 3.1875 6.1875 C3.0946875 7.5796875 3.0946875 7.5796875 3 9 C2.01 9 1.02 9 0 9 C0 6.03 0 3.06 0 0 Z " fill="#213D60" transform="translate(392,243)"/>
<path d="M0 0 C1.1446875 0.3403125 1.1446875 0.3403125 2.3125 0.6875 C1.6525 1.3475 0.9925 2.0075 0.3125 2.6875 C-0.6775 2.6875 -1.6675 2.6875 -2.6875 2.6875 C-3.3475 4.3375 -4.0075 5.9875 -4.6875 7.6875 C-5.0175 7.6875 -5.3475 7.6875 -5.6875 7.6875 C-5.91482116 4.88387237 -6.02831872 3.22563483 -4.5 0.8125 C-2.6875 -0.3125 -2.6875 -0.3125 0 0 Z " fill="#91908F" transform="translate(233.6875,265.3125)"/>
<path d="M0 0 C2.97 1.98 2.97 1.98 6 4 C6 3.34 6 2.68 6 2 C5.34 1.67 4.68 1.34 4 1 C4.99 1 5.98 1 7 1 C7 2.32 7 3.64 7 5 C5.02 5 3.04 5 1 5 C0.67 3.35 0.34 1.7 0 0 Z " fill="#33516F" transform="translate(232,247)"/>
<path d="M0 0 C0 1.32 0 2.64 0 4 C-1.65 4.66 -3.3 5.32 -5 6 C-5.33 4.68 -5.66 3.36 -6 2 C-3 0 -3 0 0 0 Z " fill="#2B466A" transform="translate(369,235)"/>
<path d="M0 0 C2.31 0 4.62 0 7 0 C6.67 1.32 6.34 2.64 6 4 C6 3.34 6 2.68 6 2 C4.02 2.33 2.04 2.66 0 3 C0 2.01 0 1.02 0 0 Z " fill="#F2F2F2" transform="translate(188,272)"/>
<path d="M0 0 C0.33 0 0.66 0 1 0 C1 3.3 1 6.6 1 10 C0.01 10 -0.98 10 -2 10 C-1.34 6.7 -0.68 3.4 0 0 Z " fill="#133B65" transform="translate(304,241)"/>
<path d="M0 0 C0.99 0 1.98 0 3 0 C3 2.31 3 4.62 3 7 C2.01 7 1.02 7 0 7 C0 4.69 0 2.38 0 0 Z " fill="#1A3963" transform="translate(302,230)"/>
<path d="M0 0 C0.33 0 0.66 0 1 0 C1 2.64 1 5.28 1 8 C0.01 8 -0.98 8 -2 8 C-2.20086443 4.28400809 -2.1519437 3.22791555 0 0 Z " fill="#14345F" transform="translate(293,241)"/>
<path d="M0 0 C1.33332095 2.6666419 0.67102033 4.16680303 0 7 C-0.99 6.67 -1.98 6.34 -3 6 C-3 4.35 -3 2.7 -3 1 C-2.01 0.67 -1.02 0.34 0 0 Z " fill="#25BAB0" transform="translate(132,232)"/>
<path d="M0 0 C2.31 0 4.62 0 7 0 C7 0.66 7 1.32 7 2 C4.69 2.33 2.38 2.66 0 3 C0 2.01 0 1.02 0 0 Z " fill="#F3F3F3" transform="translate(371,272)"/>
<path d="M0 0 C0.33 0 0.66 0 1 0 C1.22174933 1.45635371 1.42698698 2.91522956 1.625 4.375 C1.74101562 5.18710938 1.85703125 5.99921875 1.9765625 6.8359375 C1.98429687 7.55007812 1.99203125 8.26421875 2 9 C1.34 9.66 0.68 10.32 0 11 C-0.66 10.67 -1.32 10.34 -2 10 C-2 9.34 -2 8.68 -2 8 C-1.34 8 -0.68 8 0 8 C0 5.36 0 2.72 0 0 Z " fill="#435D7D" transform="translate(294,241)"/>
<path d="M0 0 C0.66 0.33 1.32 0.66 2 1 C2 2.65 2 4.3 2 6 C1.34 6 0.68 6 0 6 C-0.33 6.66 -0.66 7.32 -1 8 C-1.04241723 5.66705225 -1.04092937 3.33297433 -1 1 C-0.67 0.67 -0.34 0.34 0 0 Z " fill="#16365E" transform="translate(194,240)"/>
<path d="M0 0 C0.99 0.66 1.98 1.32 3 2 C2.67 3.65 2.34 5.3 2 7 C0.35 6.67 -1.3 6.34 -3 6 C-2.01 5.34 -1.02 4.68 0 4 C0 2.68 0 1.36 0 0 Z " fill="#5BC2C3" transform="translate(140,230)"/>
<path d="M0 0 C2.02054804 1.64169528 4.02043058 3.30911778 6 5 C6 5.33 6 5.66 6 6 C4.35 6 2.7 6 1 6 C0.67 4.02 0.34 2.04 0 0 Z " fill="#2A4A6D" transform="translate(149,205)"/>
<path d="M0 0 C1.88391785 3.26545761 2.49287967 6.28111761 3 10 C1.68 9.34 0.36 8.68 -1 8 C-0.67 7.67 -0.34 7.34 0 7 C0.04092937 4.66702567 0.04241723 2.33294775 0 0 Z " fill="#304D74" transform="translate(343,242)"/>
<path d="M0 0 C0.99 0.33 1.98 0.66 3 1 C2.67 3.31 2.34 5.62 2 8 C1.34 7.67 0.68 7.34 0 7 C0 4.69 0 2.38 0 0 Z " fill="#17395F" transform="translate(383,238)"/>
<path d="M0 0 C1.65 0 3.3 0 5 0 C5 0.99 5 1.98 5 3 C3.02 3 1.04 3 -1 3 C-0.67 2.01 -0.34 1.02 0 0 Z " fill="#62CECB" transform="translate(133,241)"/>
<path d="M0 0 C2 3.75 2 3.75 2 6 C1.34 6 0.68 6 0 6 C-0.33 7.32 -0.66 8.64 -1 10 C-1.02689216 8.52093108 -1.04634621 7.04172517 -1.0625 5.5625 C-1.07410156 4.73878906 -1.08570313 3.91507813 -1.09765625 3.06640625 C-1 1 -1 1 0 0 Z " fill="#435A7A" transform="translate(291,238)"/>
</svg>
